<svg width="2036" height="2036" viewBox="0 0 2036 2036" fill="none" xmlns="http://www.w3.org/2000/svg">
<g clip-path="url(#clip0_9_56)">
<path d="M679.547 937.521V1101.43H650.89V937.521H679.547Z" fill="#212C32" stroke="#212C32" stroke-width="7.35346" stroke-miterlimit="10"/>
<path d="M840.283 937.521V966.179H792.444V1101.43H763.545V966.168H715.705V937.521H840.273H840.283Z" fill="#212C32" stroke="#212C32" stroke-width="7.35346" stroke-miterlimit="10"/>
<path d="M900.854 936.573C900.906 949.757 900.927 960.034 900.98 973.217H946.151C989.379 973.217 1010.75 994.101 1010.75 1029.31V1101.43H984.767V1029.3C984.767 1009.64 972.865 997.977 946.162 997.977H900.99V1101.42H875.253C874.686 1045.5 874.108 992.491 873.541 936.573H900.854Z" fill="#212C32" stroke="#212C32" stroke-width="7.35346" stroke-miterlimit="10"/>
<path d="M1070.15 973.217V1049.95C1070.15 1065 1081.32 1076.42 1101.72 1076.42H1122.6C1143 1076.42 1153.93 1065.01 1153.93 1049.95V973.217H1179.18V1050.92C1179.18 1080.55 1160.24 1101.43 1123.58 1101.43H1099.79C1063.12 1101.43 1044.18 1080.55 1044.18 1050.92V973.217H1070.15Z" fill="#212C32" stroke="#212C32" stroke-width="7.35346" stroke-miterlimit="10"/>
<path d="M1251.7 936.584C1251.67 949.768 1251.64 960.034 1251.61 973.217H1308.44C1342.43 973.217 1363.8 994.101 1363.8 1037.32C1363.8 1080.54 1342.43 1101.43 1308.44 1101.43H1272.98C1242.14 1101.43 1225.88 1083.46 1225.88 1046.55C1225.04 1008.93 1224.19 974.213 1223.35 936.594L1237.59 936.584H1251.7ZM1251.61 997.977V1045.33C1251.61 1067.18 1259.63 1076.42 1280.51 1076.42H1305.77C1328.11 1076.42 1337.82 1065.01 1337.82 1037.32C1337.82 1009.63 1328.1 997.977 1305.77 997.977H1251.61Z" fill="#212C32" stroke="#212C32" stroke-width="7.35346" stroke-miterlimit="10"/>
</g>
<defs>
<clipPath id="clip0_9_56">
<rect width="720.261" height="175.107" fill="white" transform="translate(647.213 930)"/>
</clipPath>
</defs>
</svg>
