<svg width="2036" height="2036" viewBox="0 0 2036 2036" fill="none" xmlns="http://www.w3.org/2000/svg">
<path d="M667.076 765L638.224 889.989L637.928 891.259H523.151L523.447 889.989L552.299 765H667.084H667.076Z" fill="#212C32"/>
<path fill-rule="evenodd" clip-rule="evenodd" d="M637.977 891.259L628.894 930.655H657.082L666.165 891.259H867.499L851.119 962.259L851.111 962.251L838.654 1016.24H723.869L723.573 1017.52L694.434 1143.78L678.941 1210.95L665.294 1270.04H550.509L564.156 1210.95L579.656 1143.78L608.796 1017.52L609.092 1016.24L609.14 1016.04L522 896.229L523.151 891.259H637.977Z" fill="#212C32"/>
<g clip-path="url(#clip0_9_41)">
<path d="M805.547 1102.52V1266.43H776.89V1102.52H805.547Z" fill="#212C32" stroke="#212C32" stroke-width="7.35346" stroke-miterlimit="10"/>
<path d="M966.283 1102.52V1131.18H918.444V1266.43H889.545V1131.17H841.705V1102.52H966.273H966.283Z" fill="#212C32" stroke="#212C32" stroke-width="7.35346" stroke-miterlimit="10"/>
<path d="M1026.85 1101.57C1026.91 1114.76 1026.93 1125.03 1026.98 1138.22H1072.15C1115.38 1138.22 1136.75 1159.1 1136.75 1194.31V1266.43H1110.77V1194.3C1110.77 1174.64 1098.87 1162.98 1072.16 1162.98H1026.99V1266.42H1001.25C1000.69 1210.5 1000.11 1157.49 999.541 1101.57H1026.85Z" fill="#212C32" stroke="#212C32" stroke-width="7.35346" stroke-miterlimit="10"/>
<path d="M1196.15 1138.22V1214.95C1196.15 1230 1207.32 1241.42 1227.72 1241.42H1248.6C1269 1241.42 1279.93 1230.01 1279.93 1214.95V1138.22H1305.18V1215.92C1305.18 1245.55 1286.24 1266.43 1249.58 1266.43H1225.79C1189.12 1266.43 1170.18 1245.55 1170.18 1215.92V1138.22H1196.15Z" fill="#212C32" stroke="#212C32" stroke-width="7.35346" stroke-miterlimit="10"/>
<path d="M1377.7 1101.58C1377.67 1114.77 1377.64 1125.03 1377.61 1138.22H1434.44C1468.43 1138.22 1489.8 1159.1 1489.8 1202.32C1489.8 1245.54 1468.43 1266.43 1434.44 1266.43H1398.98C1368.14 1266.43 1351.88 1248.46 1351.88 1211.55C1351.04 1173.93 1350.19 1139.21 1349.35 1101.59L1363.59 1101.58H1377.7ZM1377.61 1162.98V1210.33C1377.61 1232.18 1385.63 1241.42 1406.51 1241.42H1431.77C1454.11 1241.42 1463.82 1230.01 1463.82 1202.32C1463.82 1174.63 1454.1 1162.98 1431.77 1162.98H1377.61Z" fill="#212C32" stroke="#212C32" stroke-width="7.35346" stroke-miterlimit="10"/>
</g>
<defs>
<clipPath id="clip0_9_41">
<rect width="720.261" height="175.107" fill="white" transform="translate(773.213 1095)"/>
</clipPath>
</defs>
</svg>
